<svg xmlns="http://www.w3.org/2000/svg" width="40" height="40" viewBox="0 0 40 40">
    <path fill="#313F9D" fill-rule="nonzero" d="M40 34.194a5.794 5.794 0 0 0-2.959-5.047c.245-.754.378-1.55.378-2.365a7.673 7.673 0 0 0-4.956-7.151l-.205-.077v-1.202c.381.222.818.358 1.29.358h5.162v-5.16h-5.162c-.472 0-.909.136-1.29.358v-.359a3.232 3.232 0 0 0-1.325-2.601 2.256 2.256 0 0 0-2.223-1.915h-7.89a5.148 5.148 0 0 0 1.714-3.227h1.98a1.938 1.938 0 0 0 1.936-1.935 1.938 1.938 0 0 0-1.936-1.936h-3.08A5.159 5.159 0 0 0 17.417 0a5.167 5.167 0 0 0-5.16 5.161 5.161 5.161 0 0 0 2.6 4.475 5.83 5.83 0 0 0-2.907 3.268H1.935A1.938 1.938 0 0 0 0 14.84v7.741c0 1.067.868 1.936 1.935 1.936h2.008a4.499 4.499 0 0 0-1.362 3.225v1.307a3.21 3.21 0 0 0-1.29 2.564 3.23 3.23 0 0 0 1.954 2.963C3.443 37.599 5.96 40 9.032 40a5.813 5.813 0 0 0 5.769-5.161h12.334A5.813 5.813 0 0 0 32.903 40a5.813 5.813 0 0 0 5.769-5.161H40v-.645zm-1.336-.645h-4.849l1.367-1.367a7.675 7.675 0 0 0 1.36-1.844c1.15.701 1.93 1.878 2.122 3.21zM27.02 31.22l-1.834-7.796a5.148 5.148 0 0 0-4.176-3.91l-.366-.06-.001-5.906h7.743v20h-1.744c.292-.453.453-.978.452-1.53v-.154c0-.214-.025-.43-.074-.644zm7.699 3.618a1.933 1.933 0 0 1-1.817 1.29c-.84 0-1.55-.541-1.817-1.29h3.634zm1.409-8.057c0 .105-.01.209-.015.313-1.417-.01-2.566-1.451-2.566-3.224 0-.66.16-1.288.456-1.82a6.374 6.374 0 0 1 2.125 4.73zm-3.173-5.493a5.017 5.017 0 0 0-.698 2.582c0 2.408 1.625 4.376 3.663 4.504a6.308 6.308 0 0 1-1.651 2.895l-2.279 2.279h-2.314V13.323a2.26 2.26 0 0 0 .948-.85c.212.316.343.685.343 1.076v6.899l1.042.39a6.3 6.3 0 0 1 .946.451zm4.463-3.869h-1.29v-2.58h1.29v2.58zm-3.87-2.58h1.29v2.58h-1.29c-.712 0-1.29-.579-1.29-1.29 0-.712.578-1.29 1.29-1.29zM25.16 3.87a.646.646 0 0 1-.645.646h-5.408l.11-.22c.33-.66.994-1.07 1.732-1.07h3.566c.356 0 .645.29.645.645zm-7.742-2.58c.887 0 1.733.31 2.411.851a3.2 3.2 0 0 0-1.766 1.578l-.398.797h-4.06a3.875 3.875 0 0 1 3.813-3.226zm-3.813 4.516h7.625a3.874 3.874 0 0 1-3.813 3.226 3.873 3.873 0 0 1-3.812-3.226zm-.703 9.034a4.522 4.522 0 0 1 4.517-4.518l11.29.002a.969.969 0 0 1 0 1.935H16.775v1.29h2.58v6.998l1.445.241a3.86 3.86 0 0 1 3.132 2.932l1.834 7.794c.027.117.04.234.04.35v.156c0 .409-.159.792-.447 1.08a1.527 1.527 0 0 1-2.563-.71l-1.68-6.72a3.221 3.221 0 0 0-3.13-2.444h-1.858A3.229 3.229 0 0 1 12.902 20v-5.16zm9.008 18.709h-2.555v-5.807a4.502 4.502 0 0 0-1.36-3.225 1.934 1.934 0 0 1 1.869 1.465l1.68 6.721c.076.308.202.591.366.846zM5.161 14.194h2.58v2.58h-2.58v-2.58zm-3.226 9.032a.645.645 0 0 1-.645-.645V14.84c0-.356.29-.646.645-.646h1.936v3.871h5.161v-3.87h2.618a5.764 5.764 0 0 0-.038.645V20c0 1.263.523 2.406 1.362 3.226H1.935zM9.032 38.71a4.52 4.52 0 0 1-4.464-3.871h1.304a3.231 3.231 0 0 0 3.16 2.58c1.558 0 2.86-1.11 3.16-2.58h1.305a4.52 4.52 0 0 1-4.465 3.87zm-1.817-3.871h3.633a1.933 1.933 0 0 1-1.816 1.29c-.84 0-1.55-.541-1.817-1.29zm8.269-1.29H4.516a1.938 1.938 0 0 1-1.935-1.936c0-1.067.868-1.935 1.935-1.935h9.032c1.067 0 1.936.868 1.936 1.935v1.936zm-1.936-5.162H4.516c-.22 0-.437.023-.645.066v-.71a3.23 3.23 0 0 1 3.226-3.226h7.741a3.23 3.23 0 0 1 3.227 3.225v5.807h-1.29v-1.936a3.23 3.23 0 0 0-3.227-3.226zM32.903 38.71a4.52 4.52 0 0 1-4.464-3.871h1.304a3.231 3.231 0 0 0 3.16 2.58c1.558 0 2.86-1.11 3.16-2.58h1.305a4.52 4.52 0 0 1-4.465 3.87z"/>
</svg>
