<svg xmlns="http://www.w3.org/2000/svg" width="36" height="44" viewBox="0 0 36 44">
    <path fill="#313F9D" fill-rule="evenodd" d="M17.813.083c.86 0 1.72.3 2.433.863l.19.16 13.75 12.276.155.146a4.026 4.026 0 0 1 .975 4.053l-.07.201-.078.189c-.602 1.366-1.919 2.352-3.402 2.435l-.204.006h.386v10.43l-.006.202c-.112 2-1.887 3.377-3.913 3.464l-.204.004H17.724l-6.906 8.004-.157.17c-.698.724-1.624 1.233-2.585 1.302l-.222.008-.28-.01a3.933 3.933 0 0 1-.888-.168l-.219-.075-.189-.076a3.944 3.944 0 0 1-2.361-3.405l-.006-.204-.027-19.922-.21-.01A3.944 3.944 0 0 1 .33 17.773l-.08-.196-.089-.268a3.94 3.94 0 0 1-.15-.818L0 16.216v-.043l.007-.221a3.941 3.941 0 0 1 1.168-2.568l.168-.155L15.213 1.06l.19-.156a3.932 3.932 0 0 1 2.41-.823zm0 3.943L3.955 16.193l3.89.012.055 23.847 8.129-9.209 11.719-.001V16.266l3.905.012-13.84-12.252zm6.335 16.386v2.7h-2.7v-2.7h2.7zm-3.6 0v2.7h-2.7v-2.7h2.7zm3.6-3.6v3h-2.7v-3h2.7zm-3.6 0v3h-2.7v-3h2.7z"/>
</svg>
