<svg xmlns="http://www.w3.org/2000/svg" width="26" height="31" viewBox="0 0 26 31">
    <path fill="#313F9D" fill-rule="nonzero" d="M22 25.833c0 .57-.447 1.034-1 1.034l-15-.001v2.067h18V6.2l-2-.001v19.634zM20 2.067H8v6.2C8 8.837 7.552 9.3 7 9.3H2v15.5h18V2.067zM.003 7.152L0 7.233l.002-.064.001-.017zM6 3.528L2.414 7.233H6V3.528zM.008 7.106l-.002.021-.003.025.005-.046zM6.338.258l.009-.007-.008.007.015-.014.049-.04a1.002 1.002 0 0 1 .144-.092l.052-.025a1.085 1.085 0 0 1 .23-.072l.056-.008C6.914.003 6.943 0 6.973 0H21c.553 0 1 .463 1 1.033v3.1h3c.553 0 1 .463 1 1.034v24.8c0 .57-.447 1.033-1 1.033H5c-.552 0-1-.463-1-1.033v-3.101H1c-.552 0-1-.462-1-1.033v-18.6l.006-.106.006-.055c.005-.03.01-.06.018-.089l.01-.04a.994.994 0 0 1 .157-.325.81.81 0 0 1 .096-.115l6-6.2.037-.037.009-.008z"/>
</svg>
